<svg id="Ebene_1" data-name="Ebene 1" xmlns="http://www.w3.org/2000/svg" viewBox="0 0 737.01 340.16"><defs><style>.cls-1{fill:#565960;}.cls-2{fill:#c76e3f;}.cls-3{fill:#c03839;}.cls-4{fill:#833b4e;}</style></defs><title>1047_7435_Logo arbeit.swiss</title><path class="cls-1" d="M184.58,125.62c0,3,1.68,4.42,4.95,4.42h3.54l1.5,9.11c-2.21,1.15-7.61,1.77-10.44,1.77-7.69,0-12.56-4.34-12.56-12V77.94h13Z"/><path class="cls-1" d="M242.43,111v28.84H232.08l-1.33-6.64a21,21,0,0,1-16.1,7.7c-8.14,0-14.24-4.42-14.24-12.56v-4.42c0-7,5-11.06,13.36-11.06h15.56v-1.95c-.08-4.42-1.59-5.66-7.16-5.66-4.16,0-11.41.27-18.4.71l-1.24-8.85A155.3,155.3,0,0,1,225.27,95C236.5,95,242.43,98.73,242.43,111Zm-29.11,15.57c0,3.09,1.6,4.51,5.13,4.51,3,0,7.17-1.42,10.88-4.25v-6.1H217.57c-3.18.09-4.25,1.68-4.25,4.16Z"/><path class="cls-1" d="M284.35,136.76a4.37,4.37,0,0,1-4.24,3.1H268.79a4.38,4.38,0,0,1-4.25-3.1L250.21,96.25H264.1L272,123.58c.71,2.57,1.33,5.22,1.86,7.79H275c.71-2.57,1.33-5.22,2-7.79l7.88-27.33h13.79Z"/><path class="cls-1" d="M350,118.1c0,16.71-6.1,22.91-22.38,22.91s-22.47-6.2-22.47-22.91S311.25,95,327.61,95,350,101.29,350,118.1Zm-31.14,0c0,10.43,1.86,13.09,8.76,13.09,6.72,0,8.67-2.66,8.67-13.09,0-10.62-1.95-13.27-8.67-13.27C320.71,104.83,318.85,107.48,318.85,118.1Z"/><path class="cls-1" d="M391.12,107.13h-3.54c-3.8,0-7.43,1-13.35,3v29.72h-13.1V96.25h10.18l1.15,6.46c5.83-5,12-7.7,17.69-7.7h2.3Z"/><path class="cls-1" d="M443.93,118.1c0,16.71-6.1,22.91-22.38,22.91s-22.47-6.2-22.47-22.91S405.19,95,421.55,95,443.93,101.29,443.93,118.1Zm-31.14,0c0,10.43,1.86,13.09,8.76,13.09,6.72,0,8.67-2.66,8.67-13.09,0-10.62-2-13.27-8.67-13.27C414.65,104.83,412.79,107.48,412.79,118.1Z"/><path class="cls-1" d="M462.33,126.5c3.45,0,4.6,1.06,4.6,4.51v4.25c0,3.45-1.15,4.6-4.6,4.6h-3.54c-3.45,0-4.6-1.15-4.6-4.6V131c0-3.45,1.15-4.51,4.6-4.51Z"/><path class="cls-1" d="M513.37,97l-.71,6.2c-5.4-.18-11-.45-16.36-.45-7.7,0-10.09.09-10.09,4.78,0,4.16,2,4.51,6.11,5.66l12.2,3c7,1.86,10.09,4.6,10.09,12.12,0,10.61-5.84,12.47-18.76,12.47a116.14,116.14,0,0,1-17.16-1.24l.62-6.37c4,.36,9.2.45,14.77.45,9.47,0,12.21-.89,12.21-5.31,0-4-2.48-4.42-6.54-5.49l-12-3c-7.17-1.86-9.82-5.22-9.82-12.3,0-9.82,5-12.12,17.07-12A139.38,139.38,0,0,1,513.37,97Z"/><path class="cls-1" d="M579.8,137.47a3.18,3.18,0,0,1-3.27,2.39h-7.7a3.3,3.3,0,0,1-3.27-2.75l-6.28-28.39c-.45-2.3-.8-4.6-1.33-6.9h-1.06c-.44,2.3-1,4.6-1.42,6.9l-6.19,28.39a3.33,3.33,0,0,1-3.36,2.75h-7.61a3.08,3.08,0,0,1-3.18-2.39L522.92,96.69h8.85l8.31,31.14a59.84,59.84,0,0,1,1.33,6.63h1.15c.53-2.21,1.06-4.42,1.5-6.63l6.37-28.49a3.15,3.15,0,0,1,3.19-2.65h7.69a3.21,3.21,0,0,1,3.18,2.74l6.29,28.4c.44,2.21,1,4.33,1.5,6.63h1.15a57.62,57.62,0,0,1,1.33-6.63l8.31-31.14h8.85Z"/><path class="cls-1" d="M609.43,78.29a2.24,2.24,0,0,1,2.48,2.48v5c0,1.68-.8,2.57-2.48,2.57h-4.07c-1.68,0-2.47-.89-2.47-2.57v-5a2.24,2.24,0,0,1,2.47-2.48Zm-6.28,61.57V96.69h8.49v43.17Z"/><path class="cls-1" d="M660.56,97l-.71,6.2c-5.39-.18-11-.45-16.36-.45-7.7,0-10.09.09-10.09,4.78,0,4.16,2,4.51,6.11,5.66l12.2,3c7,1.86,10.09,4.6,10.09,12.12,0,10.61-5.84,12.47-18.76,12.47a116.23,116.23,0,0,1-17.16-1.24l.62-6.37c4,.36,9.2.45,14.78.45,9.46,0,12.2-.89,12.2-5.31,0-4-2.47-4.42-6.54-5.49l-12-3c-7.17-1.86-9.82-5.22-9.82-12.3,0-9.82,5-12.12,17.07-12A139.38,139.38,0,0,1,660.56,97Z"/><path class="cls-1" d="M707.79,97l-.7,6.2c-5.4-.18-11-.45-16.37-.45-7.69,0-10.08.09-10.08,4.78,0,4.16,2,4.51,6.1,5.66l12.21,3c7,1.86,10.08,4.6,10.08,12.12,0,10.61-5.83,12.47-18.75,12.47a116.14,116.14,0,0,1-17.16-1.24l.62-6.37c4,.36,9.2.45,14.77.45,9.47,0,12.21-.89,12.21-5.31,0-4-2.48-4.42-6.55-5.49l-12-3c-7.16-1.86-9.82-5.22-9.82-12.3,0-9.82,5-12.12,17.08-12A139.09,139.09,0,0,1,707.79,97Z"/><polygon class="cls-2" points="44.96 180.65 44.96 140.23 89.86 140.23 89.86 95.33 130.28 95.33 130.28 136.7 117.07 136.7 117.07 167.53 86.25 167.53 86.25 180.65 44.96 180.65"/><polygon class="cls-3" points="44.96 180.65 44.96 221.06 89.86 221.06 89.86 265.96 130.28 265.96 130.28 224.59 117.07 224.59 117.07 193.76 86.25 193.76 86.25 180.65 44.96 180.65"/><polygon class="cls-4" points="130.28 265.88 170.69 265.88 170.69 220.98 215.6 220.98 215.6 180.56 174.22 180.56 174.22 193.77 143.4 193.77 143.4 224.59 130.28 224.59 130.28 265.88"/></svg>