<svg id="Ebene_1" data-name="Ebene 1" xmlns="http://www.w3.org/2000/svg" viewBox="0 0 737.01 340.16"><defs><style>.cls-1{fill:#565960;}.cls-2{fill:#c76e3f;}.cls-3{fill:#c03839;}.cls-4{fill:#833b4e;}</style></defs><title>1047_7435_Logo arbeit.swiss</title><path class="cls-1" d="M190.78,126.1c0,3.23,1.22,4.36,4.71,4.36H201l1.4,9a45.84,45.84,0,0,1-12.11,1.74c-7.75,0-12.28-4.53-12.28-12.37v-23H170.4V97.62l7.58-.43v-12h12.8v12h11.93v8.62H190.78Z"/><path class="cls-1" d="M241.56,107.9h-3.48c-3.75,0-7.32,1-13.15,3v29.27H212V97.19h10l1.13,6.36C228.93,98.67,235,96,240.6,96h2.27Z"/><path class="cls-1" d="M290.42,111.73v28.4H280.23l-1.3-6.53a20.65,20.65,0,0,1-15.85,7.57c-8,0-14-4.35-14-12.37v-4.35c0-6.88,5-10.89,13.16-10.89h15.32v-1.91c-.08-4.36-1.56-5.58-7-5.58-4.09,0-11.24.26-18.12.7l-1.22-8.71A153.29,153.29,0,0,1,273.53,96C284.59,96,290.42,99.63,290.42,111.73Zm-28.65,15.33c0,3.05,1.57,4.44,5.05,4.44,3,0,7.06-1.39,10.71-4.18v-6H266c-3.14.09-4.18,1.66-4.18,4.1Z"/><path class="cls-1" d="M331.71,137.08a4.32,4.32,0,0,1-4.18,3H316.38a4.32,4.32,0,0,1-4.18-3L298.09,97.19h13.67l7.76,26.91c.69,2.53,1.3,5.14,1.83,7.67h1.13c.69-2.53,1.3-5.14,2-7.67l7.75-26.91h13.59Z"/><path class="cls-1" d="M393.2,111.73v28.4H383l-1.3-6.53a20.66,20.66,0,0,1-15.86,7.57c-8,0-14-4.35-14-12.37v-4.35c0-6.88,5-10.89,13.15-10.89h15.33v-1.91c-.09-4.36-1.57-5.58-7.05-5.58-4.1,0-11.24.26-18.12.7l-1.22-8.71A153.29,153.29,0,0,1,376.31,96C387.37,96,393.2,99.63,393.2,111.73Zm-28.65,15.33c0,3.05,1.57,4.44,5.05,4.44,3,0,7-1.39,10.71-4.18v-6H368.73c-3.14.09-4.18,1.66-4.18,4.1Z"/><path class="cls-1" d="M415.15,78.2c2.53,0,3.75,1.31,3.75,3.75v4.7c0,2.53-1.22,3.75-3.75,3.75H409.4c-2.52,0-3.74-1.22-3.74-3.75V82c0-2.44,1.22-3.75,3.74-3.75Zm-9.23,61.93V97.19h12.8v42.94Z"/><path class="cls-1" d="M444.68,126.1c0,3,1.65,4.36,4.88,4.36H453l1.48,9c-2.18,1.13-7.49,1.74-10.28,1.74-7.58,0-12.37-4.27-12.37-11.84V79.16h12.81Z"/><path class="cls-1" d="M469.59,127c3.4,0,4.53,1,4.53,4.44v4.18c0,3.4-1.13,4.53-4.53,4.53H466.1c-3.39,0-4.52-1.13-4.52-4.53v-4.18c0-3.4,1.13-4.44,4.52-4.44Z"/><path class="cls-1" d="M519.84,98l-.69,6.1c-5.32-.17-10.8-.44-16.12-.44-7.57,0-9.92.09-9.92,4.71,0,4.09,2,4.44,6,5.57l12,3c6.88,1.83,9.93,4.53,9.93,11.93,0,10.46-5.75,12.29-18.46,12.29a114.7,114.7,0,0,1-16.9-1.22l.61-6.27c3.92.34,9.06.43,14.55.43,9.32,0,12-.87,12-5.23,0-3.91-2.44-4.35-6.45-5.4l-11.84-3c-7.06-1.83-9.67-5.14-9.67-12.1,0-9.67,5-11.94,16.81-11.85A136.69,136.69,0,0,1,519.84,98Z"/><path class="cls-1" d="M585.26,137.78a3.14,3.14,0,0,1-3.23,2.35h-7.57a3.27,3.27,0,0,1-3.23-2.7l-6.18-28c-.44-2.27-.78-4.53-1.31-6.79h-1c-.44,2.26-1,4.52-1.4,6.79l-6.09,28a3.29,3.29,0,0,1-3.31,2.7h-7.49a3,3,0,0,1-3.14-2.35l-12-40.16H538l8.19,30.66a60.85,60.85,0,0,1,1.31,6.53h1.13c.52-2.17,1-4.35,1.48-6.53l6.27-28a3.11,3.11,0,0,1,3.13-2.62h7.58a3.18,3.18,0,0,1,3.14,2.7l6.18,28c.44,2.18,1,4.27,1.48,6.53H579a58.5,58.5,0,0,1,1.31-6.53l8.19-30.66h8.71Z"/><path class="cls-1" d="M614.44,79.51A2.2,2.2,0,0,1,616.87,82v4.87c0,1.66-.78,2.53-2.43,2.53h-4c-1.66,0-2.44-.87-2.44-2.53V82a2.2,2.2,0,0,1,2.44-2.44Zm-6.19,60.62V97.62h8.36v42.51Z"/><path class="cls-1" d="M664.78,98l-.7,6.1c-5.31-.17-10.8-.44-16.11-.44-7.58,0-9.93.09-9.93,4.71,0,4.09,2,4.44,6,5.57l12,3C663,118.7,666,121.4,666,128.8c0,10.46-5.75,12.29-18.47,12.29a114.59,114.59,0,0,1-16.89-1.22l.61-6.27c3.91.34,9,.43,14.54.43,9.32,0,12-.87,12-5.23,0-3.91-2.44-4.35-6.44-5.4l-11.85-3c-7-1.83-9.67-5.14-9.67-12.1,0-9.67,5-11.94,16.81-11.85A136.84,136.84,0,0,1,664.78,98Z"/><path class="cls-1" d="M711.29,98l-.7,6.1c-5.31-.17-10.8-.44-16.11-.44-7.58,0-9.93.09-9.93,4.71,0,4.09,2,4.44,6,5.57l12,3c6.88,1.83,9.93,4.53,9.93,11.93,0,10.46-5.75,12.29-18.47,12.29a114.59,114.59,0,0,1-16.89-1.22l.61-6.27c3.92.34,9.06.43,14.54.43,9.32,0,12-.87,12-5.23,0-3.91-2.44-4.35-6.44-5.4l-11.85-3c-7-1.83-9.67-5.14-9.67-12.1,0-9.67,5-11.94,16.81-11.85A136.84,136.84,0,0,1,711.29,98Z"/><polygon class="cls-2" points="45.09 180.67 45.09 140.26 89.99 140.26 89.99 95.36 130.41 95.36 130.41 136.73 117.2 136.73 117.2 167.56 86.38 167.56 86.38 180.67 45.09 180.67"/><polygon class="cls-3" points="45.09 180.67 45.09 221.09 89.99 221.09 89.99 265.99 130.41 265.99 130.41 224.62 117.2 224.62 117.2 193.79 86.38 193.79 86.38 180.67 45.09 180.67"/><polygon class="cls-4" points="130.41 265.91 170.82 265.91 170.82 221.01 215.73 221.01 215.73 180.59 174.35 180.59 174.35 193.8 143.53 193.8 143.53 224.62 130.41 224.62 130.41 265.91"/></svg>